<svg width="1448" height="290" viewBox="0 0 1448 290" fill="none" xmlns="http://www.w3.org/2000/svg">
<path d="M1292.13 135.632L1292.13 135.632C1284.72 143.72 1275.68 150.227 1265.56 154.613L1265.56 154.613C1264.57 155.042 1263.57 155.451 1262.56 155.837L1262.56 155.838C1255.34 158.612 1247.61 160.322 1239.56 160.783L1239.56 160.784C1239.2 160.805 1238.84 160.823 1238.48 160.838L1238.48 160.839C1237.37 160.889 1236.26 160.913 1235.14 160.913H1235.12C1234.07 160.913 1233.03 160.891 1231.99 160.849C1223.46 160.507 1215.28 158.763 1207.67 155.838L1207.67 155.837C1206.67 155.455 1205.69 155.053 1204.71 154.629C1203.91 154.281 1203.11 153.923 1202.33 153.549L1202.33 153.549C1196.53 150.803 1191.12 147.352 1186.2 143.304L1186.2 143.304C1185.51 142.737 1184.83 142.159 1184.16 141.567C1183.77 141.223 1183.39 140.878 1183 140.53C1166.97 125.842 1156.88 104.481 1156.88 80.7055C1156.88 36.3966 1191.92 0.5 1235.12 0.5C1236.61 0.5 1238.1 0.543954 1239.57 0.627506C1253.78 1.44523 1266.97 6.14916 1278.16 13.7165C1299.36 28.0651 1313.36 52.7039 1313.36 80.7055C1313.36 101.96 1305.29 121.282 1292.13 135.632Z" fill="#452A78"/>
<path d="M1292.13 135.632L1292.13 135.632C1284.72 143.72 1275.68 150.227 1265.56 154.613L1265.56 154.613C1264.57 155.042 1263.57 155.451 1262.56 155.837L1262.56 155.838C1255.34 158.612 1247.61 160.322 1239.56 160.783L1239.56 160.784C1239.2 160.805 1238.84 160.823 1238.48 160.838L1238.48 160.839C1237.37 160.889 1236.26 160.913 1235.14 160.913H1235.12C1234.07 160.913 1233.03 160.891 1231.99 160.849C1223.46 160.507 1215.28 158.763 1207.67 155.838L1207.67 155.837C1206.67 155.455 1205.69 155.053 1204.71 154.629C1203.91 154.281 1203.11 153.923 1202.33 153.549L1202.33 153.549C1196.53 150.803 1191.12 147.352 1186.2 143.304L1186.2 143.304C1185.51 142.737 1184.83 142.159 1184.16 141.567C1183.77 141.223 1183.39 140.878 1183 140.53C1166.97 125.842 1156.88 104.481 1156.88 80.7055C1156.88 36.3966 1191.92 0.5 1235.12 0.5C1236.61 0.5 1238.1 0.543954 1239.57 0.627506C1253.78 1.44523 1266.97 6.14916 1278.16 13.7165C1299.36 28.0651 1313.36 52.7039 1313.36 80.7055C1313.36 101.96 1305.29 121.282 1292.13 135.632Z" stroke="black"/>
<path d="M1292.13 135.632L1292.13 135.632C1284.72 143.72 1275.68 150.227 1265.56 154.613L1265.56 154.613C1264.57 155.042 1263.57 155.451 1262.56 155.837L1262.56 155.838C1255.34 158.612 1247.61 160.322 1239.56 160.783L1239.56 160.784C1239.2 160.805 1238.84 160.823 1238.48 160.838L1238.48 160.839C1237.37 160.889 1236.26 160.913 1235.14 160.913H1235.12C1234.07 160.913 1233.03 160.891 1231.99 160.849C1223.46 160.507 1215.28 158.763 1207.67 155.838L1207.67 155.837C1206.67 155.455 1205.69 155.053 1204.71 154.629C1203.91 154.281 1203.11 153.923 1202.33 153.549L1202.33 153.549C1196.53 150.803 1191.12 147.352 1186.2 143.304L1186.2 143.304C1185.51 142.737 1184.83 142.159 1184.16 141.567C1183.77 141.223 1183.39 140.878 1183 140.53C1166.97 125.842 1156.88 104.481 1156.88 80.7055C1156.88 36.3966 1191.92 0.5 1235.12 0.5C1236.61 0.5 1238.1 0.543954 1239.57 0.627506C1253.78 1.44523 1266.97 6.14916 1278.16 13.7165C1299.36 28.0651 1313.36 52.7039 1313.36 80.7055C1313.36 101.96 1305.29 121.282 1292.13 135.632Z" stroke="black" stroke-opacity="0.2"/>
<path d="M1299.09 80.7056C1299.09 116.939 1270.44 146.29 1235.12 146.29C1199.8 146.29 1171.15 116.939 1171.15 80.7056C1171.15 44.4726 1199.8 15.1211 1235.12 15.1211C1270.44 15.1211 1299.09 44.4726 1299.09 80.7056Z" fill="white"/>
<path d="M1299.09 80.7056C1299.09 116.939 1270.44 146.29 1235.12 146.29C1199.8 146.29 1171.15 116.939 1171.15 80.7056C1171.15 44.4726 1199.8 15.1211 1235.12 15.1211C1270.44 15.1211 1299.09 44.4726 1299.09 80.7056Z" stroke="black"/>
<path d="M1299.09 80.7056C1299.09 116.939 1270.44 146.29 1235.12 146.29C1199.8 146.29 1171.15 116.939 1171.15 80.7056C1171.15 44.4726 1199.8 15.1211 1235.12 15.1211C1270.44 15.1211 1299.09 44.4726 1299.09 80.7056Z" stroke="black" stroke-opacity="0.2"/>
<path d="M1282.36 80.7056C1282.36 107.466 1261.2 129.138 1235.12 129.138C1209.04 129.138 1187.88 107.466 1187.88 80.7056C1187.88 53.9456 1209.04 32.2734 1235.12 32.2734C1261.2 32.2734 1282.36 53.9456 1282.36 80.7056Z" fill="#452A78"/>
<path d="M1282.36 80.7056C1282.36 107.466 1261.2 129.138 1235.12 129.138C1209.04 129.138 1187.88 107.466 1187.88 80.7056C1187.88 53.9456 1209.04 32.2734 1235.12 32.2734C1261.2 32.2734 1282.36 53.9456 1282.36 80.7056Z" stroke="black"/>
<path d="M1282.36 80.7056C1282.36 107.466 1261.2 129.138 1235.12 129.138C1209.04 129.138 1187.88 107.466 1187.88 80.7056C1187.88 53.9456 1209.04 32.2734 1235.12 32.2734C1261.2 32.2734 1282.36 53.9456 1282.36 80.7056Z" stroke="black" stroke-opacity="0.2"/>
<path d="M1267.13 80.7054C1267.13 98.8418 1252.78 113.523 1235.12 113.523C1217.46 113.523 1203.11 98.8418 1203.11 80.7054C1203.11 62.569 1217.46 47.8877 1235.12 47.8877C1252.78 47.8877 1267.13 62.569 1267.13 80.7054Z" fill="white"/>
<path d="M1267.13 80.7054C1267.13 98.8418 1252.78 113.523 1235.12 113.523C1217.46 113.523 1203.11 98.8418 1203.11 80.7054C1203.11 62.569 1217.46 47.8877 1235.12 47.8877C1252.78 47.8877 1267.13 62.569 1267.13 80.7054Z" stroke="black"/>
<path d="M1267.13 80.7054C1267.13 98.8418 1252.78 113.523 1235.12 113.523C1217.46 113.523 1203.11 98.8418 1203.11 80.7054C1203.11 62.569 1217.46 47.8877 1235.12 47.8877C1252.78 47.8877 1267.13 62.569 1267.13 80.7054Z" stroke="black" stroke-opacity="0.2"/>
<path d="M1249.5 80.7055C1249.5 88.863 1243.05 95.4549 1235.12 95.4549C1227.19 95.4549 1220.74 88.863 1220.74 80.7055C1220.74 72.548 1227.19 65.9561 1235.12 65.9561C1243.05 65.9561 1249.5 72.548 1249.5 80.7055Z" fill="#452A78"/>
<path d="M1249.5 80.7055C1249.5 88.863 1243.05 95.4549 1235.12 95.4549C1227.19 95.4549 1220.74 88.863 1220.74 80.7055C1220.74 72.548 1227.19 65.9561 1235.12 65.9561C1243.05 65.9561 1249.5 72.548 1249.5 80.7055Z" stroke="black"/>
<path d="M1249.5 80.7055C1249.5 88.863 1243.05 95.4549 1235.12 95.4549C1227.19 95.4549 1220.74 88.863 1220.74 80.7055C1220.74 72.548 1227.19 65.9561 1235.12 65.9561C1243.05 65.9561 1249.5 72.548 1249.5 80.7055Z" stroke="black" stroke-opacity="0.2"/>
<path d="M1167.12 264.548L1167.73 265.824C1170.51 265.054 1173.31 264.192 1176.07 263.261L1175.34 262.021C1172.63 262.94 1169.86 263.789 1167.12 264.548H1167.12Z" fill="#452A78" stroke="#452A78" stroke-linejoin="round"/>
<path d="M1183.31 259.067L1184.15 260.266C1186.84 259.176 1189.46 258.018 1191.92 256.821L1190.96 255.677C1188.53 256.855 1185.96 257.995 1183.31 259.069V259.067Z" fill="#452A78" stroke="#452A78" stroke-linejoin="round"/>
<path d="M1237.76 165.415C1237.56 163.166 1237.29 160.882 1236.97 158.627L1235.19 158.777C1235.52 161.013 1235.78 163.277 1235.98 165.507L1237.76 165.416V165.415Z" fill="#452A78" stroke="#452A78" stroke-linejoin="round"/>
<path d="M1150 267.875L1150.28 269.216C1153.23 268.865 1156.2 268.411 1159.1 267.869L1158.68 266.551C1155.82 267.084 1152.91 267.529 1150 267.875Z" fill="#452A78" stroke="#452A78" stroke-linejoin="round"/>
<path d="M1198.9 251.41C1198.67 251.547 1198.44 251.682 1198.21 251.816L1199.3 252.891C1199.54 252.754 1199.77 252.615 1200 252.476C1202.08 251.234 1204.12 249.845 1206.08 248.35L1204.82 247.393C1202.91 248.851 1200.92 250.201 1198.9 251.409V251.41Z" fill="#452A78" stroke="#452A78" stroke-linejoin="round"/>
<path d="M1232.2 205.783L1233.94 206.082C1234.59 203.895 1235.17 201.644 1235.68 199.388L1233.92 199.162C1233.42 201.393 1232.84 203.62 1232.2 205.783H1232.2Z" fill="#452A78" stroke="#452A78" stroke-linejoin="round"/>
<path d="M1238.17 172.222L1236.38 172.253C1236.45 174.505 1236.45 176.778 1236.39 179.008L1238.18 179.038C1238.24 176.788 1238.24 174.494 1238.17 172.222Z" fill="#452A78" stroke="#452A78" stroke-linejoin="round"/>
<path d="M1235.17 192.481L1236.95 192.64C1237.29 190.408 1237.57 188.124 1237.77 185.851L1235.99 185.759C1235.79 188.012 1235.51 190.273 1235.17 192.482V192.481Z" fill="#452A78" stroke="#452A78" stroke-linejoin="round"/>
<path d="M1220.23 231.086L1221.81 231.718C1223.17 229.747 1224.48 227.674 1225.69 225.552L1224.05 225.012C1222.86 227.102 1221.57 229.145 1220.23 231.086H1220.23Z" fill="#452A78" stroke="#452A78" stroke-linejoin="round"/>
<path d="M1210.66 242.373L1212.06 243.215C1213.87 241.472 1215.63 239.594 1217.28 237.633L1215.78 236.9C1214.16 238.824 1212.43 240.666 1210.66 242.373Z" fill="#452A78" stroke="#452A78" stroke-linejoin="round"/>
<path d="M1227.3 218.742L1228.98 219.197C1229.96 217.092 1230.88 214.904 1231.72 212.694L1230 212.32C1229.18 214.502 1228.27 216.663 1227.3 218.742Z" fill="#452A78" stroke="#452A78" stroke-linejoin="round"/>
<path d="M1418.45 267V269H1448V267H1418.45ZM1359.35 267V269H1388.9V267H1359.35ZM1300.24 267V269H1329.8V267H1300.24ZM1241.14 267V269H1270.69V267H1241.14ZM1182.04 267V269H1211.59V267H1182.04ZM1122.94 267V269H1152.49V267H1122.94ZM1063.84 267V269H1093.39V267H1063.84ZM1004.73 267V269H1034.28V267H1004.73ZM945.63 267V269H975.185V267H945.63ZM886.532 267V269H916.081V267H886.532ZM827.428 267V269H856.977V267H827.428ZM768.324 267V269H797.879V267H768.324ZM709.225 267V269H738.775V267H709.225ZM650.121 267V269H679.676V267H650.121ZM591.023 267V269H620.572V267H591.023ZM531.919 267V269H561.468V267H531.919ZM472.815 267V269H502.37V267H472.815ZM413.717 267V269H443.266V267H413.717ZM354.613 267V269H384.162V267H354.613ZM295.509 267V269H325.064V267H295.509ZM236.41 267V269H265.96V267H236.41ZM177.306 267V269H206.861V267H177.306ZM118.208 267V269H147.757V267H118.208ZM59.1041 267V269H88.6532V267H59.1041ZM0 267V269H29.5549V267H0Z" fill="#452A78"/>
<path d="M963.582 267.726L907.641 245.452V290L963.582 267.726Z" fill="#6E45BC"/>
<path d="M907.641 274.413C905.761 272.186 903.88 269.953 902 267.726C903.88 265.618 905.761 263.507 907.641 261.399L961.118 267.726L962.642 267.907C944.309 270.077 925.974 272.243 907.641 274.415V274.413Z" fill="#170930"/>
<path d="M907.641 274.413C905.761 272.186 903.88 269.953 902 267.726H961.12L962.643 267.907C944.31 270.077 925.975 272.243 907.642 274.415L907.641 274.413Z" fill="#36196C"/>
<path d="M1112.58 267.726L1056.64 245.452V290L1112.58 267.726Z" fill="#6E45BC"/>
<path d="M1056.64 274.413C1054.76 272.186 1052.88 269.953 1051 267.726C1052.88 265.618 1054.76 263.507 1056.64 261.399L1110.12 267.726L1111.64 267.907C1093.31 270.077 1074.97 272.243 1056.64 274.415V274.413Z" fill="#170930"/>
<path d="M1056.64 274.413C1054.76 272.186 1052.88 269.953 1051 267.726H1110.12L1111.64 267.907C1093.31 270.077 1074.98 272.243 1056.64 274.415L1056.64 274.413Z" fill="#36196C"/>
<path d="M545.582 267.726L489.641 245.452V290L545.582 267.726Z" fill="#DADADA"/>
<path d="M489.641 274.413C487.761 272.186 485.88 269.953 484 267.726C485.88 265.618 487.761 263.507 489.641 261.399L543.118 267.726L544.642 267.907C526.309 270.077 507.974 272.243 489.641 274.415V274.413Z" fill="#CCCCCC"/>
<path d="M489.641 274.413C487.761 272.186 485.88 269.953 484 267.726H543.12L544.643 267.907C526.31 270.077 507.975 272.243 489.642 274.415L489.641 274.413Z" fill="#E6E6E6"/>
<path d="M343.582 267.726L287.641 245.452V290L343.582 267.726Z" fill="#DADADA"/>
<path d="M287.641 274.413C285.761 272.186 283.88 269.953 282 267.726C283.88 265.618 285.761 263.507 287.641 261.399L341.118 267.726L342.642 267.907C324.309 270.077 305.974 272.243 287.641 274.415V274.413Z" fill="#CCCCCC"/>
<path d="M287.641 274.413C285.761 272.186 283.88 269.953 282 267.726H341.12L342.643 267.907C324.31 270.077 305.975 272.243 287.642 274.415L287.641 274.413Z" fill="#E6E6E6"/>
<path d="M141.582 267.726L85.6406 245.452V290L141.582 267.726Z" fill="#DADADA"/>
<path d="M85.6408 274.413C83.7605 272.186 81.8803 269.953 80 267.726C81.8803 265.618 83.7605 263.507 85.6408 261.399L139.118 267.726L140.642 267.907C122.309 270.077 103.974 272.243 85.6408 274.415V274.413Z" fill="#CCCCCC"/>
<path d="M85.6408 274.413C83.7605 272.186 81.8803 269.953 80 267.726H139.12L140.643 267.907C122.31 270.077 103.975 272.243 85.6424 274.415L85.6408 274.413Z" fill="#E6E6E6"/>
<path d="M1266.25 156.304H1204.02L1204.14 156.021L1204.45 155.229L1204.51 155.087L1209.91 141.546L1216.24 125.664L1222.01 111.202L1228.69 94.4613L1234.83 79.057L1235.03 78.5548L1235.14 78.2959L1235.38 78.8955L1235.55 79.3358L1241.58 94.4481L1248.26 111.189L1254.02 125.651L1260.36 141.533L1265.76 155.072L1266.25 156.304Z" fill="#6E45BC"/>
<path d="M1244.48 156.304C1242.49 157.981 1240.49 159.661 1238.5 161.338C1237.38 162.283 1236.26 163.225 1235.14 164.17C1234.08 163.23 1233.02 162.289 1231.97 161.349C1230.08 159.667 1228.19 157.986 1226.3 156.304L1227.48 146.33L1229.5 129.301L1231.34 113.8L1233.46 95.8619L1235.14 81.732L1235.39 79.6079C1236.03 85.0023 1236.67 90.3989 1237.31 95.7933C1238.02 101.774 1238.72 107.753 1239.43 113.731C1240.05 118.9 1240.66 124.068 1241.27 129.235C1241.94 134.912 1242.62 140.588 1243.29 146.263C1243.68 149.611 1244.08 152.956 1244.48 156.304Z" fill="#170930"/>
<path d="M1244.48 156.304C1242.49 157.981 1240.49 159.661 1238.5 161.338C1237.38 162.283 1236.26 163.225 1235.14 164.17V81.732L1235.39 79.6079C1236.03 85.0023 1236.67 90.3989 1237.31 95.7933C1238.02 101.774 1238.72 107.753 1239.43 113.731C1240.05 118.9 1240.66 124.068 1241.27 129.235C1241.94 134.912 1242.61 140.588 1243.29 146.263C1243.68 149.611 1244.08 152.956 1244.48 156.304Z" fill="#36196C"/>
</svg>
